<svg xmlns="http://www.w3.org/2000/svg" width="173.188" height="53.826" viewBox="0 0 173.188 53.826">
  <g id="Armilo" transform="translate(-22.301 -10)">
    <g id="Group_3" data-name="Group 3" transform="translate(22.358 10)">
      <path id="Path_5" data-name="Path 5" d="M46.157,37.064a.669.669,0,0,1-.4-.151c-5.584-4.98-15.494-4.326-16.651-4.226a.49.49,0,0,1-.453-.2.85.85,0,0,1-.151-.5A26.924,26.924,0,0,1,55.011,10c12.878,0,23.945,9.457,26.41,22.436a.554.554,0,0,1-.654.654c-1.258-.2-12.375-1.61-17.456,3.773a.661.661,0,0,1-.6.151.619.619,0,0,1-.352-.553c.352-12.828-6.439-16.349-7.6-16.9C46.71,22.878,46.71,35.1,46.71,36.46a.524.524,0,0,1-.352.5A.2.2,0,0,1,46.157,37.064Zm16.4-.905ZM31.317,31.581c3.471,0,9.91.5,14.387,3.974.1-3.421,1.056-13.934,8.854-17l.2-.05.2.05c.352.151,8.4,3.32,8.4,16.852,5.181-4.427,14.287-3.723,16.953-3.421-2.566-11.973-13.331-20.977-25.3-20.977a25.921,25.921,0,0,0-25.4,20.625C30.059,31.631,30.613,31.581,31.317,31.581Zm49.1,1.056Zm.5-.553Z" transform="translate(-28.5 -10)" fill="#fe7a79"/>
    </g>
    <g id="Group_4" data-name="Group 4" transform="translate(22.301 39.826)">
      <path id="Path_6" data-name="Path 6" d="M54.753,93.291A26.744,26.744,0,0,1,28.394,70.4a.675.675,0,0,1,.553-.755h0c10.061-1.66,18.16,4.377,20.373,6.238a16.619,16.619,0,0,1,4.326-4.578.7.7,0,0,1,.7-.05,14.6,14.6,0,0,1,5.332,4.628c8.149-7.244,19.82-6.64,21.128-6.54a.528.528,0,0,1,.453.252.971.971,0,0,1,.151.5A26.977,26.977,0,0,1,54.753,93.291ZM29.45,70.553a25.755,25.755,0,0,0,50.908-.2c-2.364-.1-12.979-.2-20.323,6.59a.568.568,0,0,1-.553.151.733.733,0,0,1-.453-.3,13.06,13.06,0,0,0-4.93-4.527c-.7.553-3.169,2.515-4.024,4.427a.714.714,0,0,1-.453.4.568.568,0,0,1-.553-.151C47.459,75.584,39.511,69.044,29.45,70.553Z" transform="translate(-28.387 -69.291)" fill="#fe7a79"/>
    </g>
    <g id="Group_5" data-name="Group 5" transform="translate(29.41 24.84)">
      <path id="Path_7" data-name="Path 7" d="M61.977,70.739A19.443,19.443,0,0,1,46.232,39.852a.811.811,0,0,1,.654-.3c9.457.956,13.532,6.791,14.79,9.155A19.491,19.491,0,0,1,76.867,39.5a.811.811,0,0,1,.654.3A19.428,19.428,0,0,1,81.193,52.68C80.69,61.634,74.5,70.739,61.977,70.739ZM46.986,40.556a18.578,18.578,0,0,0-3.37,12.073A18.158,18.158,0,0,0,62.027,69.683c13.532,0,17.858-10.765,18.261-17.154a18.458,18.458,0,0,0-3.37-12.073,18.436,18.436,0,0,0-14.538,9.105h0a.8.8,0,0,1-.7.4.674.674,0,0,1-.654-.4C60.065,47.7,56.343,41.562,46.986,40.556Z" transform="translate(-42.518 -39.5)" fill="#fe7a79"/>
    </g>
    <g id="Group_6" data-name="Group 6" transform="translate(89.149 29.065)">
      <path id="Path_8" data-name="Path 8" d="M28.945,141.289l-1.508-3.436H20.482l-1.508,3.436H17.8L23.415,128.3H24.42l5.615,12.989ZM20.9,136.764h6.2L24,129.557Z" transform="translate(-17.8 -128.049)" fill="#444" stroke="#444445" stroke-width="0.5"/>
      <path id="Path_9" data-name="Path 9" d="M54.288,141.273H53.031l-2.179-4.19a3.635,3.635,0,0,0-1.006-1.173,2.817,2.817,0,0,0-1.592-.335H45.573v5.615H44.4V128.2h5.2a5.139,5.139,0,0,1,3.184.922,3.2,3.2,0,0,1,1.089,2.682,3.306,3.306,0,0,1-.838,2.43,3.89,3.89,0,0,1-2.514,1.089,1.739,1.739,0,0,1,.838.5,3.721,3.721,0,0,1,.67.922Zm-4.86-6.62c2.179,0,3.184-.922,3.184-2.765a2.475,2.475,0,0,0-.754-2.011,3.823,3.823,0,0,0-2.43-.67H45.406v5.447Z" transform="translate(-22.109 -128.032)" fill="#444" stroke="#444445" stroke-width="0.5"/>
      <path id="Path_10" data-name="Path 10" d="M79.745,128.2h.922v12.989H79.578V130.546l-4.525,8.715h-.838l-4.525-8.715v10.643H68.6V128.2h.922l5.112,9.888Z" transform="translate(-26.03 -128.032)" fill="#444" stroke="#444445" stroke-width="0.5"/>
      <path id="Path_11" data-name="Path 11" d="M96.3,141.289V128.3h1.173v12.989Z" transform="translate(-30.517 -128.049)" fill="#444" stroke="#444445" stroke-width="0.5"/>
      <path id="Path_12" data-name="Path 12" d="M110.9,141.289V128.3h1.173v11.983h6.7v1.006Z" transform="translate(-32.882 -128.049)" fill="#444" stroke="#444445" stroke-width="0.5"/>
      <path id="Path_13" data-name="Path 13" d="M133.282,140.57a5.573,5.573,0,0,1-2.011-2.346,7.773,7.773,0,0,1-.67-3.52,9.086,9.086,0,0,1,.67-3.52A5.347,5.347,0,0,1,136.382,128a5.375,5.375,0,0,1,3.1.838,6.544,6.544,0,0,1,2.011,2.263,7.773,7.773,0,0,1,.67,3.52,9.086,9.086,0,0,1-.67,3.52,5.347,5.347,0,0,1-5.112,3.184A6.071,6.071,0,0,1,133.282,140.57Zm6.453-1.676a6.255,6.255,0,0,0,1.257-4.19,6.911,6.911,0,0,0-1.173-4.19,4.053,4.053,0,0,0-3.436-1.508,4.272,4.272,0,0,0-3.436,1.508,6.246,6.246,0,0,0-1.173,4.19,6.91,6.91,0,0,0,1.173,4.19,4.16,4.16,0,0,0,3.436,1.508A4.118,4.118,0,0,0,139.734,138.894Z" transform="translate(-36.074 -128)" fill="#444" stroke="#444445" stroke-width="0.5"/>
    </g>
  </g>
</svg>
