<?xml version="1.0" encoding="utf-8"?>
<!-- Generator: Adobe Illustrator 25.2.3, SVG Export Plug-In . SVG Version: 6.00 Build 0)  -->
<svg version="1.1" id="Layer_2" xmlns="http://www.w3.org/2000/svg" xmlns:xlink="http://www.w3.org/1999/xlink" x="0px" y="0px"
	 viewBox="0 0 162.2 153.9" style="enable-background:new 0 0 162.2 153.9;" xml:space="preserve">
<style type="text/css">
	.st0{fill:#FE7A79;}
	.st1{fill:#444444;}
</style>
<g>
	<g>
		<path class="st0" d="M63.6,63.8c-0.3,0-0.5-0.1-0.8-0.3c-11.1-9.9-30.8-8.6-33.1-8.4c-0.4,0-0.7-0.1-0.9-0.4
			c-0.2-0.3-0.3-0.6-0.3-1C33.2,28.4,55.3,10,81.2,10c25.6,0,47.6,18.8,52.5,44.6c0.1,0.4,0,0.7-0.3,1c-0.3,0.3-0.6,0.4-1,0.3
			c-2.5-0.4-24.6-3.2-34.7,7.5c-0.3,0.3-0.8,0.4-1.2,0.3c-0.4-0.2-0.7-0.6-0.7-1.1C96.5,37.1,83,30.1,80.7,29
			c-16,6.6-16,30.9-16,33.6c0,0.4-0.2,0.8-0.7,1C63.9,63.8,63.7,63.8,63.6,63.8z M96.2,62C96.2,62,96.2,62,96.2,62
			C96.2,62,96.2,62,96.2,62z M34.1,52.9c6.9,0,19.7,1,28.6,7.9C62.9,54,64.8,33.1,80.3,27l0.4-0.1l0.4,0.1
			c0.7,0.3,16.7,6.6,16.7,33.5c10.3-8.8,28.4-7.4,33.7-6.8C126.4,29.9,105,12,81.2,12C56.7,12,35.6,29.2,30.7,53
			C31.6,53,32.7,52.9,34.1,52.9z M131.7,55C131.7,55,131.7,55,131.7,55C131.7,55,131.7,55,131.7,55z M132.7,53.9
			C132.7,53.9,132.7,53.9,132.7,53.9L132.7,53.9C132.7,53.9,132.7,53.9,132.7,53.9z"/>
	</g>
	<g>
		<path class="st0" d="M80.8,117c-26.2,0-48.2-19.1-52.4-45.5c-0.1-0.7,0.4-1.4,1.1-1.5l0,0c20-3.3,36.1,8.7,40.5,12.4
			c2.3-4.3,7.5-8.3,8.6-9.1c0.4-0.3,0.9-0.3,1.4-0.1c6,3.1,9.3,7.3,10.6,9.2c16.2-14.4,39.4-13.2,42-13c0.4,0,0.7,0.2,0.9,0.5
			c0.2,0.3,0.3,0.7,0.3,1C130.2,97.2,107.4,117,80.8,117z M30.5,71.8C34.8,96.8,55.8,115,80.8,115c25.3,0,47.1-18.7,50.9-43.6
			c-4.7-0.2-25.8-0.4-40.4,13.1c-0.3,0.3-0.7,0.4-1.1,0.3c-0.4-0.1-0.7-0.3-0.9-0.6c-0.8-1.3-3.7-5.7-9.8-9c-1.4,1.1-6.3,5-8,8.8
			c-0.2,0.4-0.5,0.7-0.9,0.8c-0.4,0.1-0.8,0-1.1-0.3C66.3,81.8,50.5,68.8,30.5,71.8z"/>
	</g>
	<g>
		<path class="st0" d="M81.2,101.6c-23.6,0-37.4-18.5-38.6-35.8c-0.9-14.4,5.9-23.9,7.3-25.6c0.3-0.4,0.8-0.6,1.3-0.6
			C70,41.5,78.1,53.1,80.6,57.8c2.8-4.7,11.5-16.4,30.2-18.3c0.5,0,1,0.2,1.3,0.6c1.4,1.8,8.2,11.2,7.3,25.6
			C118.4,83.5,106.1,101.6,81.2,101.6z M51.4,41.6c-1.6,2.1-7.5,10.9-6.7,24c1.1,16.5,14.2,33.9,36.6,33.9
			c26.9,0,35.5-21.4,36.3-34.1c0.8-13.2-5.1-21.9-6.7-24c-18.7,2-26.8,14.3-28.9,18.1l0,0c-0.3,0.5-0.8,0.8-1.4,0.8
			c-0.6,0-1.1-0.3-1.3-0.8C77.4,55.8,70,43.6,51.4,41.6z"/>
	</g>
	<g>
		<path class="st1" d="M31.1,143.8l-1.8-4.1H21l-1.8,4.1h-1.4l6.7-15.5h1.2l6.7,15.5H31.1z M21.5,138.4h7.4l-3.7-8.6L21.5,138.4z"/>
		<path class="st1" d="M56.2,143.8h-1.5l-2.6-5c-0.4-0.7-0.8-1.1-1.2-1.4s-1.1-0.4-1.9-0.4h-3.2v6.7h-1.4v-15.5h6.2
			c1.6,0,2.9,0.4,3.8,1.1c0.9,0.7,1.3,1.8,1.3,3.2c0,1.2-0.3,2.2-1,2.9c-0.7,0.7-1.7,1.2-3,1.3c0.4,0.1,0.7,0.3,1,0.6
			c0.3,0.3,0.6,0.7,0.8,1.1L56.2,143.8z M50.4,135.9c2.6,0,3.8-1.1,3.8-3.3c0-1.1-0.3-1.9-0.9-2.4c-0.6-0.5-1.6-0.8-2.9-0.8h-4.8
			v6.5H50.4z"/>
		<path class="st1" d="M81.9,128.2h1.1v15.5h-1.3V131l-5.4,10.4h-1L69.9,131l0,12.7h-1.3v-15.5h1.1l6.1,11.8L81.9,128.2z"/>
		<path class="st1" d="M96.3,143.8v-15.5h1.4v15.5H96.3z"/>
		<path class="st1" d="M110.9,143.8v-15.5h1.4v14.3h8v1.2H110.9z"/>
		<path class="st1" d="M133.8,143c-1-0.6-1.8-1.6-2.4-2.8c-0.6-1.2-0.8-2.6-0.8-4.2c0-1.6,0.3-3,0.8-4.2c0.6-1.2,1.4-2.1,2.4-2.8
			c1-0.6,2.3-1,3.7-1s2.7,0.3,3.7,1s1.8,1.6,2.4,2.7c0.6,1.2,0.8,2.6,0.8,4.2s-0.3,3-0.8,4.2c-0.6,1.2-1.4,2.1-2.4,2.8
			c-1,0.6-2.3,1-3.7,1C136.1,143.9,134.8,143.6,133.8,143z M141.5,141c1-1.2,1.5-2.8,1.5-5c0-2.1-0.5-3.8-1.4-5s-2.3-1.8-4.1-1.8
			c-1.7,0-3.1,0.6-4.1,1.8c-1,1.2-1.4,2.8-1.4,5c0,2.1,0.5,3.8,1.4,5c1,1.2,2.3,1.8,4.1,1.8S140.6,142.1,141.5,141z"/>
	</g>
</g>
</svg>
